{
    "asset" : {
        "generator" : "Khronos glTF Blender I/O v1.6.16",
        "version" : "2.0"
    },
    "scene" : 0,
    "scenes" : [
        {
            "name" : "Scene",
            "nodes" : [
                0,
                1,
                2,
                3,
                4,
                5,
                6,
                7
            ]
        }
    ],
    "nodes" : [
        {
            "mesh" : 0,
            "name" : "Sphere",
            "translation" : [
                0,
                0,
                -20
            ]
        },
        {
            "mesh" : 1,
            "name" : "Sphere.001",
            "translation" : [
                0,
                0,
                20
            ]
        },
        {
            "mesh" : 2,
            "name" : "Sphere.002",
            "translation" : [
                20,
                0,
                0
            ]
        },
        {
            "mesh" : 3,
            "name" : "Sphere.003",
            "translation" : [
                -20,
                0,
                0
            ]
        },
        {
            "mesh" : 4,
            "name" : "Sphere.007",
            "translation" : [
                0,
                0,
                -20
            ]
        },
        {
            "mesh" : 5,
            "name" : "Sphere.006",
            "translation" : [
                0,
                0,
                20
            ]
        },
        {
            "mesh" : 6,
            "name" : "Sphere.005",
            "translation" : [
                20,
                0,
                0
            ]
        },
        {
            "mesh" : 7,
            "name" : "Sphere.004",
            "translation" : [
                -20,
                0,
                0
            ]
        }
    ],
    "meshes" : [
        {
            "name" : "Sphere",
            "primitives" : [
                {
                    "attributes" : {
                        "POSITION" : 0,
                        "NORMAL" : 1,
                        "TEXCOORD_0" : 2
                    },
                    "indices" : 3
                }
            ]
        },
        {
            "name" : "Sphere.001",
            "primitives" : [
                {
                    "attributes" : {
                        "POSITION" : 4,
                        "NORMAL" : 5,
                        "TEXCOORD_0" : 6
                    },
                    "indices" : 7
                }
            ]
        },
        {
            "name" : "Sphere.002",
            "primitives" : [
                {
                    "attributes" : {
                        "POSITION" : 8,
                        "NORMAL" : 9,
                        "TEXCOORD_0" : 10
                    },
                    "indices" : 11
                }
            ]
        },
        {
            "name" : "Sphere.003",
            "primitives" : [
                {
                    "attributes" : {
                        "POSITION" : 12,
                        "NORMAL" : 13,
                        "TEXCOORD_0" : 14
                    },
                    "indices" : 15
                }
            ]
        },
        {
            "name" : "Sphere.007",
            "primitives" : [
                {
                    "attributes" : {
                        "POSITION" : 16,
                        "NORMAL" : 17,
                        "TEXCOORD_0" : 18
                    },
                    "indices" : 19
                }
            ]
        },
        {
            "name" : "Sphere.006",
            "primitives" : [
                {
                    "attributes" : {
                        "POSITION" : 20,
                        "NORMAL" : 21,
                        "TEXCOORD_0" : 22
                    },
                    "indices" : 23
                }
            ]
        },
        {
            "name" : "Sphere.005",
            "primitives" : [
                {
                    "attributes" : {
                        "POSITION" : 24,
                        "NORMAL" : 25,
                        "TEXCOORD_0" : 26
                    },
                    "indices" : 27
                }
            ]
        },
        {
            "name" : "Sphere.004",
            "primitives" : [
                {
                    "attributes" : {
                        "POSITION" : 28,
                        "NORMAL" : 29,
                        "TEXCOORD_0" : 30
                    },
                    "indices" : 31
                }
            ]
        }
    ],
    "accessors" : [
        {
            "bufferView" : 0,
            "componentType" : 5126,
            "count" : 1984,
            "max" : [
                1.6462297439575195,
                -18.35377311706543,
                22.09824562072754
            ],
            "min" : [
                -1.6462291479110718,
                -21.646230697631836,
                17.901758193969727
            ],
            "type" : "VEC3"
        },
        {
            "bufferView" : 1,
            "componentType" : 5126,
            "count" : 1984,
            "type" : "VEC3"
        },
        {
            "bufferView" : 2,
            "componentType" : 5126,
            "count" : 1984,
            "type" : "VEC2"
        },
        {
            "bufferView" : 3,
            "componentType" : 5123,
            "count" : 2880,
            "type" : "SCALAR"
        },
        {
            "bufferView" : 4,
            "componentType" : 5126,
            "count" : 1984,
            "max" : [
                1.6462297439575195,
                21.646228790283203,
                -17.901756286621094
            ],
            "min" : [
                -1.6462291479110718,
                18.353771209716797,
                -22.098243713378906
            ],
            "type" : "VEC3"
        },
        {
            "bufferView" : 5,
            "componentType" : 5126,
            "count" : 1984,
            "type" : "VEC3"
        },
        {
            "bufferView" : 6,
            "componentType" : 5126,
            "count" : 1984,
            "type" : "VEC2"
        },
        {
            "bufferView" : 7,
            "componentType" : 5123,
            "count" : 2880,
            "type" : "SCALAR"
        },
        {
            "bufferView" : 8,
            "componentType" : 5126,
            "count" : 1984,
            "max" : [
                1.6462287902832031,
                1.6462267637252808,
                2.098245620727539
            ],
            "min" : [
                -1.646230697631836,
                -1.646230697631836,
                -2.0982418060302734
            ],
            "type" : "VEC3"
        },
        {
            "bufferView" : 9,
            "componentType" : 5126,
            "count" : 1984,
            "type" : "VEC3"
        },
        {
            "bufferView" : 10,
            "componentType" : 5126,
            "count" : 1984,
            "type" : "VEC2"
        },
        {
            "bufferView" : 11,
            "componentType" : 5123,
            "count" : 2880,
            "type" : "SCALAR"
        },
        {
            "bufferView" : 12,
            "componentType" : 5126,
            "count" : 1984,
            "max" : [
                1.6462326049804688,
                1.6462267637252808,
                2.098245620727539
            ],
            "min" : [
                -1.6462268829345703,
                -1.646230697631836,
                -2.0982418060302734
            ],
            "type" : "VEC3"
        },
        {
            "bufferView" : 13,
            "componentType" : 5126,
            "count" : 1984,
            "type" : "VEC3"
        },
        {
            "bufferView" : 14,
            "componentType" : 5126,
            "count" : 1984,
            "type" : "VEC2"
        },
        {
            "bufferView" : 15,
            "componentType" : 5123,
            "count" : 2880,
            "type" : "SCALAR"
        },
        {
            "bufferView" : 16,
            "componentType" : 5126,
            "count" : 1984,
            "max" : [
                -12.495903968811035,
                -12.495906829833984,
                22.09824562072754
            ],
            "min" : [
                -15.78836441040039,
                -15.78836727142334,
                17.901758193969727
            ],
            "type" : "VEC3"
        },
        {
            "bufferView" : 17,
            "componentType" : 5126,
            "count" : 1984,
            "type" : "VEC3"
        },
        {
            "bufferView" : 18,
            "componentType" : 5126,
            "count" : 1984,
            "type" : "VEC2"
        },
        {
            "bufferView" : 19,
            "componentType" : 5123,
            "count" : 2880,
            "type" : "SCALAR"
        },
        {
            "bufferView" : 20,
            "componentType" : 5126,
            "count" : 1984,
            "max" : [
                15.788365364074707,
                15.78836441040039,
                -17.901756286621094
            ],
            "min" : [
                12.495904922485352,
                12.495904922485352,
                -22.098243713378906
            ],
            "type" : "VEC3"
        },
        {
            "bufferView" : 21,
            "componentType" : 5126,
            "count" : 1984,
            "type" : "VEC3"
        },
        {
            "bufferView" : 22,
            "componentType" : 5126,
            "count" : 1984,
            "type" : "VEC2"
        },
        {
            "bufferView" : 23,
            "componentType" : 5123,
            "count" : 2880,
            "type" : "SCALAR"
        },
        {
            "bufferView" : 24,
            "componentType" : 5126,
            "count" : 1984,
            "max" : [
                -4.211634635925293,
                -12.495904922485352,
                2.098247528076172
            ],
            "min" : [
                -7.504095077514648,
                -15.788370132446289,
                -2.0982418060302734
            ],
            "type" : "VEC3"
        },
        {
            "bufferView" : 25,
            "componentType" : 5126,
            "count" : 1984,
            "type" : "VEC3"
        },
        {
            "bufferView" : 26,
            "componentType" : 5126,
            "count" : 1984,
            "type" : "VEC2"
        },
        {
            "bufferView" : 27,
            "componentType" : 5123,
            "count" : 2880,
            "type" : "SCALAR"
        },
        {
            "bufferView" : 28,
            "componentType" : 5126,
            "count" : 1984,
            "max" : [
                7.504096031188965,
                15.78836441040039,
                2.098245620727539
            ],
            "min" : [
                4.211636543273926,
                12.495903015136719,
                -2.0982437133789062
            ],
            "type" : "VEC3"
        },
        {
            "bufferView" : 29,
            "componentType" : 5126,
            "count" : 1984,
            "type" : "VEC3"
        },
        {
            "bufferView" : 30,
            "componentType" : 5126,
            "count" : 1984,
            "type" : "VEC2"
        },
        {
            "bufferView" : 31,
            "componentType" : 5123,
            "count" : 2880,
            "type" : "SCALAR"
        }
    ],
    "bufferViews" : [
        {
            "buffer" : 0,
            "byteLength" : 23808,
            "byteOffset" : 0
        },
        {
            "buffer" : 0,
            "byteLength" : 23808,
            "byteOffset" : 23808
        },
        {
            "buffer" : 0,
            "byteLength" : 15872,
            "byteOffset" : 47616
        },
        {
            "buffer" : 0,
            "byteLength" : 5760,
            "byteOffset" : 63488
        },
        {
            "buffer" : 0,
            "byteLength" : 23808,
            "byteOffset" : 69248
        },
        {
            "buffer" : 0,
            "byteLength" : 23808,
            "byteOffset" : 93056
        },
        {
            "buffer" : 0,
            "byteLength" : 15872,
            "byteOffset" : 116864
        },
        {
            "buffer" : 0,
            "byteLength" : 5760,
            "byteOffset" : 132736
        },
        {
            "buffer" : 0,
            "byteLength" : 23808,
            "byteOffset" : 138496
        },
        {
            "buffer" : 0,
            "byteLength" : 23808,
            "byteOffset" : 162304
        },
        {
            "buffer" : 0,
            "byteLength" : 15872,
            "byteOffset" : 186112
        },
        {
            "buffer" : 0,
            "byteLength" : 5760,
            "byteOffset" : 201984
        },
        {
            "buffer" : 0,
            "byteLength" : 23808,
            "byteOffset" : 207744
        },
        {
            "buffer" : 0,
            "byteLength" : 23808,
            "byteOffset" : 231552
        },
        {
            "buffer" : 0,
            "byteLength" : 15872,
            "byteOffset" : 255360
        },
        {
            "buffer" : 0,
            "byteLength" : 5760,
            "byteOffset" : 271232
        },
        {
            "buffer" : 0,
            "byteLength" : 23808,
            "byteOffset" : 276992
        },
        {
            "buffer" : 0,
            "byteLength" : 23808,
            "byteOffset" : 300800
        },
        {
            "buffer" : 0,
            "byteLength" : 15872,
            "byteOffset" : 324608
        },
        {
            "buffer" : 0,
            "byteLength" : 5760,
            "byteOffset" : 340480
        },
        {
            "buffer" : 0,
            "byteLength" : 23808,
            "byteOffset" : 346240
        },
        {
            "buffer" : 0,
            "byteLength" : 23808,
            "byteOffset" : 370048
        },
        {
            "buffer" : 0,
            "byteLength" : 15872,
            "byteOffset" : 393856
        },
        {
            "buffer" : 0,
            "byteLength" : 5760,
            "byteOffset" : 409728
        },
        {
            "buffer" : 0,
            "byteLength" : 23808,
            "byteOffset" : 415488
        },
        {
            "buffer" : 0,
            "byteLength" : 23808,
            "byteOffset" : 439296
        },
        {
            "buffer" : 0,
            "byteLength" : 15872,
            "byteOffset" : 463104
        },
        {
            "buffer" : 0,
            "byteLength" : 5760,
            "byteOffset" : 478976
        },
        {
            "buffer" : 0,
            "byteLength" : 23808,
            "byteOffset" : 484736
        },
        {
            "buffer" : 0,
            "byteLength" : 23808,
            "byteOffset" : 508544
        },
        {
            "buffer" : 0,
            "byteLength" : 15872,
            "byteOffset" : 532352
        },
        {
            "buffer" : 0,
            "byteLength" : 5760,
            "byteOffset" : 548224
        }
    ],
    "buffers" : [
        {
            "byteLength" : 553984,
            "uri" : "data:application/octet-stream;base64,"
        }
    ]
}
